<svg id="Layer_1" data-name="Layer 1" xmlns="http://www.w3.org/2000/svg" xmlns:xlink="http://www.w3.org/1999/xlink" viewBox="0 0 500 500"><defs><style>.cls-1{fill:none;}.cls-2{fill:#fff;}.cls-2,.cls-3,.cls-4,.cls-5,.cls-6,.cls-7{fill-rule:evenodd;}.cls-3{fill:#78dd86;}.cls-4{fill:#d4f9dc;}.cls-5{fill:#61d080;}.cls-6{fill:#d1e3f0;}.cls-7{fill:#5cc46b;}.cls-8{clip-path:url(#clip-path);}</style><clipPath id="clip-path"><rect class="cls-1" x="1429.8" y="-155.64" width="798.23" height="853.57"/></clipPath></defs><path class="cls-2" d="M337,39.14A38.29,38.29,0,0,0,310.22,28.2H111.14A52.75,52.75,0,0,0,58.41,80.93V419.07a52.75,52.75,0,0,0,52.73,52.73H388.86a52.75,52.75,0,0,0,52.73-52.73V157.79a38.23,38.23,0,0,0-11.46-27.3L337,39.14Z"/><path class="cls-3" d="M310.22,28.2H268.63a38.23,38.23,0,0,1,26.78,10.94l93.13,91.35A38.23,38.23,0,0,1,400,157.79V419.07a52.73,52.73,0,0,1-52.73,52.73h41.59a52.75,52.75,0,0,0,52.73-52.73V157.79a38.23,38.23,0,0,0-11.46-27.3L337,39.14A38.29,38.29,0,0,0,310.22,28.2Z"/><path class="cls-4" d="M403.82,104.68H58.41V89.39H388.22l15.6,15.29Z"/><path class="cls-5" d="M291.36,28.2h18.86A38.29,38.29,0,0,1,337,39.14l93.12,91.35a38.23,38.23,0,0,1,11.46,27.3v16.58H338.89a47.51,47.51,0,0,1-47.53-47.52V28.2Z"/><path class="cls-6" d="M291.36,89.39h96.86l15.6,15.29H291.36V89.39Z"/><path class="cls-7" d="M307.62,28.2h2.6A38.29,38.29,0,0,1,337,39.14l93.12,91.35a38.23,38.23,0,0,1,11.46,27.3v.75H345.86a38.24,38.24,0,0,1-38.24-38.24V28.2Z"/><path class="cls-4" d="M369.28,245.56A43.29,43.29,0,0,0,326,202.28H174a43.29,43.29,0,0,0-43.29,43.28v99.89A43.29,43.29,0,0,0,174,388.74H326a43.29,43.29,0,0,0,43.29-43.29V245.56Z"/><path class="cls-5" d="M290.72,244.07c-3,2.44-32.37,26.7-53.28,45.67-2,1.77-3.87,3.52-5.66,5.19-9.67-7.58-20.31-14.7-22.85-16.39a18.12,18.12,0,0,0-25.58,25.61c1.84,2.75,9.92,14.82,18.1,25,6.88,8.55,13.77,15.42,14.09,15.74a24.14,24.14,0,0,0,34.08.06c.43-.41,9.86-9.62,21.06-22,19-21,43.3-50.42,45.68-53.31a18.12,18.12,0,0,0-25.64-25.6Z"/></svg>