<svg xmlns="http://www.w3.org/2000/svg" viewBox="0 0 1000 1000"><defs><style>.cls-1{isolation:isolate;}.cls-2{fill:#7eedb5;}.cls-3{fill:#fff;}.cls-4{mix-blend-mode:multiply;opacity:0.3;}.cls-5{fill:#56b779;}.cls-6{fill:#006837;}</style></defs><g class="cls-1"><g id="Layer_1" data-name="Layer 1"><g id="World"><path class="cls-2" d="M501.38,793.13,214.09,505.84c-80.28-80.28-80.28-210.44,0-290.72,79.16-79.17,206.84-80.26,287.35-3.28,80.62-75,206.79-73.25,285.28,5.24,80.28,80.28,80.28,210.44,0,290.71Z"/><path class="cls-3" d="M310.37,457.1c-25-6.67-30-36.68-3.34-30s36.68-38.34,55-51.68,8.33-20-8.34-33.34,23.34-13.34,16.67-40S332,313.73,307,288.72s-86.68-38.34-86.68-38.34c-35,51.68-15,70,11.67,70s16.67,28.34,10,55,25,61.68,33.34,76.69,45,6.67,45,28.34-1.67,33.34,13.34,43.34-3.34,45,5,61.69,20-6.67,31.67-30,40-41.68,13.34-71.69S335.38,463.77,310.37,457.1Z"/><path class="cls-3" d="M445.4,232c-37.32-8.78-78.35,11.67-66.68,30s20,40,16.67,71.68,16.67-25,33.34-21.67,10-20,20-41.68S473.74,238.71,445.4,232Z"/><path class="cls-3" d="M757.15,255.38c-18.34-3.33-55,21.67-85,10s-43.34-11.67-50-1.66-6.67-16.68-25,1.66,0,36.68-25,38.35-35-8.34-40,10-11.67-25-28.34-13.34-30,48.35-16.67,43.35,21.67-23.34,21.67-6.67-5,28.34-18.33,25-6.67,8.34-20,13.34-15,11.67-13.34,21.67,1.67,5,18.34-1.66,23.34,8.33,45,0,26.68-3.34,18.34,8.33-11.67,20-23.34,16.67-6.67,0-28.34,0-36.67-10-38.34,15-1.67,51.68,13.34,43.34,26.67-18.34,25,1.67,1.67,46.68,15,48.35-6.67,20,1.66,33.34c12.65,20.24,33.35-20,45-53.35s38.35-35,21.68-45-11.67-33.34,5-26.68,41.68,3.34,48.34,21.68,15-25,35,0,38.35,15,33.35,1.66-10-5,11.67-25,15-16.67,11.67-33.34,16.67-13.34,10-36.68-5-16.67-10-33.34,11.66-45,23.33-23.34,16.68,18.34,18.34,3.33S775.49,258.71,757.15,255.38Z"/><path class="cls-3" d="M560.43,540.45c18.34,1.67,10-21.67,10-21.67C558.77,525.45,542.1,538.79,560.43,540.45Z"/><path class="cls-3" d="M700.47,475.44c-10.14,0-23.34,5-16.67,15s16.67,13.34,18.34,0S703.81,475.44,700.47,475.44Z"/><path class="cls-3" d="M653.79,477.11c0,15,15,25,23.34,25s-6.67-6.67-10-18.34S653.79,471.83,653.79,477.11Z"/><path class="cls-3" d="M697.16,545.49c-26.75-8.36-37.19,17.62-23.49,29.37s9.79,19.57,19.58,13.7S728.49,555.28,697.16,545.49Z"/><path class="cls-3" d="M703,502.42c-7.83,0-23.5,3.91-7.83,5.87s33.28,2,31.32-2S703,502.42,703,502.42Z"/><path class="cls-3" d="M712.83,469.14c-13.14,0,0,35.24,0,27.41s0-13.71,7.83-7.84,11.74,7.84,5.87-1.95,13.7-15.67,3.92-15.67-9.79,9.79-11.75,7.84S716.74,469.14,712.83,469.14Z"/><path class="cls-3" d="M714.78,439.77c-7.83,9.79-7.83,31.32-3.91,19.58S714.78,439.77,714.78,439.77Z"/><path class="cls-3" d="M335,437.81c-9.69-9.69-17.62,7.83-3.91,9.79S342.8,445.64,335,437.81Z"/><path class="cls-3" d="M313.44,249.86c-13.71,0-15.67,15.67-2,15.67S313.44,249.86,313.44,249.86Z"/><path class="cls-3" d="M327.14,277.27c-9.91-6.6-9.79,9.79-3.91,9.79s0,2,9.78,0,23.5,2,15.67-3.91S333,281.19,327.14,277.27Z"/><path class="cls-3" d="M336.93,257.7c-7-5.26-11.75,3.91-2,7.83S344.76,263.57,336.93,257.7Z"/><path class="cls-3" d="M560.12,265.53c-11.3-8.47-13.71,25.45-5.87,27.41s5.87-3.92,5.87-13.71S568,271.4,560.12,265.53Z"/><path class="cls-3" d="M785.36,307.1c-1.64-29.77-40.36,44.08-26.9,46.66S785.81,315.16,785.36,307.1Z"/><path class="cls-3" d="M730.45,332.09c-6.32-3.16,0,17.62,3.91,29.37s3.92,19.58,5.87,11.74S738.28,336,730.45,332.09Z"/><path class="cls-3" d="M755.9,469.14c-7.83,0-17.62,5.87-7.83,9.79s5.87,13.7,1.95,15.66-19.57-7.83-9.79,3.91,23.5,13.71,29.37,11.75,9.79-7.83,3.92-11.75-2-3.91-3.92-9.79,2-9.78-3.91-13.7A100.88,100.88,0,0,0,755.9,469.14Z"/><path class="cls-3" d="M448.52,347.75c-20.19-5-11.74,25.45,0,15.67S456.36,349.71,448.52,347.75Z"/><path class="cls-3" d="M479.85,406.49c-3.61-10.83,17.62-5.88,13.7,0S483.76,418.23,479.85,406.49Z"/><path class="cls-3" d="M517.05,406.49c-2.48-1.24,2,9.79,3.91,3.91S521,408.44,517.05,406.49Z"/><path class="cls-3" d="M425,377.12c-8.77-5.85-9.79,13.7-3.91,9.79S430.9,381,425,377.12Z"/><g class="cls-4"><path class="cls-5" d="M786.72,217.08A205,205,0,0,0,635.26,157a205.31,205.31,0,0,1,49.66,36.63c80.28,80.27,80.28,210.43,0,290.71L438.74,730.49l62.64,62.64L786.72,507.79C867,427.52,867,297.36,786.72,217.08Z"/></g><path class="cls-6" d="M645.51,159.93a21.33,21.33,0,0,1-4.13-14.8,22.53,22.53,0,0,1,8.54-15.65,21.36,21.36,0,0,1,5.59,16.57,22.36,22.36,0,0,1-5.25,12.46c5.14-1.44,10.3-2.63,15.4-3.62a22.25,22.25,0,0,1,3.75-15.77,21.91,21.91,0,0,1,15-9.33,22.36,22.36,0,0,1-9.9,23.58c6-.91,12-1.55,17.6-2a22.28,22.28,0,0,1,18-24.84,22.31,22.31,0,0,1-9.63,24.33c4.6-.2,9-.28,13-.27a22.46,22.46,0,0,1,7.87-14,21.31,21.31,0,0,1,16.84-4.76,22.51,22.51,0,0,1-8.09,15.88,21.77,21.77,0,0,1-5.06,3.11c6,.27,10.76.67,13.74,1a21.23,21.23,0,0,1,15.68-3.8,20.36,20.36,0,0,1,14.27,9.62,21.35,21.35,0,0,1-16.86,4.67,20.25,20.25,0,0,1-12.45-7.12c-1.85-.2-4.72-.48-8.41-.73a20.33,20.33,0,0,1,6.34,5.08,21.43,21.43,0,0,1,4.59,16.91,20.39,20.39,0,0,1-15.54-7.39A21.28,21.28,0,0,1,721.6,154c-5.61-.18-12.15-.22-19.3,0a20.2,20.2,0,0,1,7.68,5.71,21.49,21.49,0,0,1,4.59,16.91A20.36,20.36,0,0,1,699,169.3a21.28,21.28,0,0,1-4.8-14.8c-4.81.32-9.82.8-15,1.47a19.86,19.86,0,0,1,5.35,2.5,20.84,20.84,0,0,1,9.08,14.78,20.51,20.51,0,0,1-25.81-15.49c-4.57.84-9.19,1.85-13.81,3.06a20.13,20.13,0,0,1,8,4.41,21.11,21.11,0,0,1,6.94,16,20.47,20.47,0,0,1-16.49-5,20.92,20.92,0,0,1-6.73-13c-15.44,4.9-30.46,12.2-43,23l-2-2.48C613.83,172.49,629.47,165,645.51,159.93Z"/><path class="cls-6" d="M401.31,662a21.33,21.33,0,0,1,.83,15.34,22.48,22.48,0,0,1-11.72,13.43,21.33,21.33,0,0,1-1.88-17.38,22.39,22.39,0,0,1,7.82-11c-5.33.3-10.62.35-15.82.21a22.28,22.28,0,0,1-7.07,14.59A21.93,21.93,0,0,1,356.81,683a22.36,22.36,0,0,1,14.76-20.89c-6.1-.41-12-1.06-17.61-1.86a22.24,22.24,0,0,1-6.46,13.86,21.94,21.94,0,0,1-16.44,6.5A22.31,22.31,0,0,1,345.72,659c-4.54-.8-8.81-1.66-12.77-2.55a22.44,22.44,0,0,1-10.7,12,21.36,21.36,0,0,1-17.47,1,22.47,22.47,0,0,1,11.33-13.75,21.84,21.84,0,0,1,5.62-2c-5.83-1.56-10.37-3-13.21-3.92a21.23,21.23,0,0,1-16.13.32,20.39,20.39,0,0,1-11.86-12.48,21.4,21.4,0,0,1,17.48-.92,20.23,20.23,0,0,1,10.61,9.65c1.77.59,4.51,1.48,8.06,2.53a20.25,20.25,0,0,1-5.1-6.33,21.46,21.46,0,0,1-.82-17.5,20.36,20.36,0,0,1,13.57,10.57,21.29,21.29,0,0,1,1.41,15.74c5.43,1.39,11.81,2.84,18.85,4.13a20.24,20.24,0,0,1-6.26-7.24,21.42,21.42,0,0,1-.83-17.5,20.38,20.38,0,0,1,13.58,10.57,21.3,21.3,0,0,1,1.48,15.49c4.77.72,9.76,1.34,14.92,1.8a20.25,20.25,0,0,1-4.68-3.6,20.85,20.85,0,0,1-5.67-16.4A20.52,20.52,0,0,1,379,659.27c4.65.17,9.38.18,14.14,0a20.24,20.24,0,0,1-6.86-6,21.13,21.13,0,0,1-3.32-17.11,20.42,20.42,0,0,1,15,8.45,20.92,20.92,0,0,1,3.77,14.15c16.14-1.44,32.38-5.33,47-13.16l1.44,2.86C435,656.57,418.05,660.56,401.31,662Z"/></g></g></g></svg>