<svg id="Layer_1" data-name="Layer 1" xmlns="http://www.w3.org/2000/svg" viewBox="0 0 799 879"><defs><style>.cls-1{fill:none;}.cls-2{fill:#ffeb97;}.cls-3{fill:#eac011;}.cls-4{fill:#ffdf5a;}.cls-5{fill:#f5f7fc;}</style></defs><rect class="cls-1" x="21.38" y="-68.57" width="798.23" height="853.57"/><path class="cls-2" d="M119,101.27,400,.36,677.67,100c35.61,16.78,66.75,26.79,66.75,60.35V325.07a622.34,622.34,0,0,1-91.73,327.84A569.75,569.75,0,0,1,396.78,879c-113.7-36.94-198.56-135.43-250.47-219.69A622.34,622.34,0,0,1,54.58,331.47V182.87C55.06,135.68,80,112.62,119,101.27Z"/><path class="cls-3" d="M397.27,782.92A454.17,454.17,0,0,0,599.82,602.58a492.75,492.75,0,0,0,72.42-259.41V227.66c0-26.2-15.69-50.7-47.08-65.43L399.92,77.74V0L677.55,99.58c29.21,12.68,66.75,26.8,66.75,60.36V324.71a622.34,622.34,0,0,1-91.73,327.84A569.81,569.81,0,0,1,396.66,878.64Z"/><path class="cls-4" d="M397.27,878.52a349,349,0,0,1-55.17-24.14,499.16,499.16,0,0,1-116.84-91.86A631.32,631.32,0,0,1,144,653.28a599.78,599.78,0,0,1-89-331V187.1c0-67.72,34.88-72.43,64.09-85.46L400.16.72V78.46L172.39,164c-31.39,14.61-47.2,39.11-47.2,65.31V344a492.82,492.82,0,0,0,72.43,259.4,443,443,0,0,0,199.77,179Z"/><path class="cls-5" d="M326.05,335.81V313.48a73,73,0,1,1,145.93,0h0v22.69a40.69,40.69,0,0,1,34.77,40.32V507.7A40.8,40.8,0,0,1,466,548.5H329.79A40.8,40.8,0,0,1,289,507.7h0V376.37A40.68,40.68,0,0,1,326.05,335.81Zm53.23,139.06h36.21l-5.55-25.71a21.71,21.71,0,1,0-23.54,0c-3.74,9.53-7.72,25.71-7.72,25.71Zm-37.54-139.3H456.17V313.48a57.22,57.22,0,0,0-114.43,0Z"/></svg>