<svg id="Layer_1" data-name="Layer 1" xmlns="http://www.w3.org/2000/svg" viewBox="0 0 1000 1000"><defs><style>.cls-1{fill:#5d9177;}.cls-2{fill:#fff;}.cls-3{fill:#95c6af;}.cls-4{fill:#fab20c;}.cls-5{fill:#fa9103;}.cls-6{fill:#fdb2d0;}.cls-7{fill:#fe93bc;}.cls-8{fill:#8eb9dd;}.cls-9{fill:#0280e1;}.cls-10{fill:#b0d8ff;}.cls-11{fill:#a67747;}.cls-12{fill:#8c643f;}.cls-13{fill:#d69a56;}.cls-14{fill:#e8ab72;}</style></defs><circle class="cls-1" cx="500" cy="500" r="468"/><path class="cls-2" d="M968,500q0,19.44-1.57,38.48C954.34,687,872.88,816,754.49,892.81a465.42,465.42,0,0,1-230.94,74.61Q511.87,968,500,968q-8.83,0-17.6-.33a466.59,466.59,0,0,1-235.61-74l-.3-.2C117.43,810.12,32,665,32,500q0-17.78,1.32-35.25a466.71,466.71,0,0,1,14-84.13A159.64,159.64,0,0,1,159.84,473.2a49.27,49.27,0,0,1,13-1.76,48.68,48.68,0,0,1,48.68,48.69,50.19,50.19,0,0,1-.29,5.24,46.78,46.78,0,0,1-1.37,7.37c4.09.68,8.15,1.5,12.14,2.49l1.31.33a159.73,159.73,0,0,1,44.55,19A151.48,151.48,0,0,1,291.34,564a157.65,157.65,0,0,1,14.75,12.92c.11.11.22.22.31.33a158.74,158.74,0,0,1,22.47,28.15c2,3.15,3.86,6.37,5.61,9.64h210c3.82-3.09,7.81-6,11.92-8.74.73-.49,1.48-1,2.23-1.44A158.06,158.06,0,0,1,635.56,580q3.69-.19,7.42-.22h0c.47,0,1,0,1.44,0A158.51,158.51,0,0,1,744.29,615H757.6c1.63-3.46,3.38-6.82,5.28-10.13A137.32,137.32,0,0,1,819,551.19a135,135,0,0,1,46-14.15h0c1.11-.15,2.19-.28,3.29-.37,4.42-.44,8.87-.66,13.4-.66,4.2,0,8.35.21,12.45.59a93.23,93.23,0,0,1,71.59-83.47Q968,476.25,968,500Z"/><path class="cls-3" d="M966.43,538.48C954.34,687,872.88,816,754.49,892.81a465.42,465.42,0,0,1-230.94,74.61Q511.87,968,500,968q-8.83,0-17.6-.33a466.59,466.59,0,0,1-235.61-74l-.3-.2C117.43,810.12,32,665,32,500q0-17.78,1.32-35.25l.27-1a159,159,0,0,1,102.69,56.5,159,159,0,0,1,23.56,38.45,49.27,49.27,0,0,1,13-1.77,48.67,48.67,0,0,1,48.68,48.68,50.23,50.23,0,0,1-.29,5.25,47.34,47.34,0,0,1-1.37,7.38,157.43,157.43,0,0,1,33.27,9.29,154.71,154.71,0,0,1,24.73,12.54,151.61,151.61,0,0,1,15.54,11,4.38,4.38,0,0,1,.5.4,157.89,157.89,0,0,1,26.87,27.68q4.31,5.67,8.1,11.71c2,3.15,3.86,6.35,5.61,9.64h210A158.53,158.53,0,0,1,643,665.24h1.46a158.31,158.31,0,0,1,99.85,35.28H757.6c1.63-3.46,3.38-6.84,5.28-10.13A137.38,137.38,0,0,1,819,636.69a135.39,135.39,0,0,1,46-14.15h0c1.11-.15,2.19-.26,3.29-.35,4.42-.44,8.87-.68,13.4-.68,4.2,0,8.35.22,12.45.59A93.21,93.21,0,0,1,966.43,538.48Z"/><rect class="cls-4" x="289.26" y="520.37" width="414.88" height="137.86" rx="32.37"/><rect class="cls-5" x="364.7" y="544.14" width="271.82" height="90.32" rx="24.7"/><rect class="cls-6" x="444.34" y="526.14" width="112.11" height="152.02" rx="22.8"/><path class="cls-7" d="M520,677.74a41.08,41.08,0,0,1-6,.43H485.25a41.69,41.69,0,0,1-41.69-41.7V567.82a41.68,41.68,0,0,1,41.69-41.69H514a41.08,41.08,0,0,1,6,.42,41.73,41.73,0,0,0-35.66,41.27v68.65A41.72,41.72,0,0,0,520,677.74Z"/><path class="cls-6" d="M708.36,322.08h-4.68V290.36c0-112.39-91.11-203.49-203.49-203.49h0c-112.39,0-203.5,91.1-203.5,203.49v91.95c0,112.39,91.11,203.5,203.5,203.5h0c104.64,0,190.81-79,202.2-180.59h6a28.11,28.11,0,0,0,28.11-28.12V350.19A28.1,28.1,0,0,0,708.36,322.08Z"/><path class="cls-7" d="M369.34,382.32v-92c0-100,72.1-183.12,167.17-200.25a204,204,0,0,0-36.33-3.24C387.8,86.86,296.69,178,296.69,290.35v31.73h-3.83a28.11,28.11,0,0,0-28.12,28.11V377.1a28.12,28.12,0,0,0,28.12,28.12H298c11.38,101.61,97.56,180.59,202.2,180.59a204,204,0,0,0,36.33-3.24C441.44,565.45,369.34,482.3,369.34,382.32Z"/><path class="cls-4" d="M754.49,730.18V892.81a465.42,465.42,0,0,1-230.94,74.61Q511.87,968,500,968q-8.83,0-17.6-.33a466.59,466.59,0,0,1-235.61-74l-.3-.2c-.33-16.47-.65-50.88-1-51.24v-112a89.22,89.22,0,0,1,47.89-79.1,88.93,88.93,0,0,1,41.41-10.19H418v-17a19.08,19.08,0,0,1,13.65-18.28,19.26,19.26,0,0,1,5.45-.8h128.3a19.08,19.08,0,0,1,19.09,19.08v17h80.71A88.9,88.9,0,0,1,684.57,643h0a89.41,89.41,0,0,1,62.61,51.81s0,0,0,.06c.34.82.69,1.63,1,2.47.42,1,.8,2.1,1.17,3.16A89.18,89.18,0,0,1,754.49,730.18Z"/><path class="cls-5" d="M394,640.89a89.29,89.29,0,0,0-89.25,89.29V925.42a463.88,463.88,0,0,1-58-31.77V730.18a89.21,89.21,0,0,1,47.11-78.7,87.32,87.32,0,0,1,16.72-6.91h0a89.7,89.7,0,0,1,25.43-3.68Z"/><path class="cls-8" d="M523.55,604.81V967.42Q511.87,968,500,968q-8.83,0-17.6-.33V604.81Z"/><path class="cls-9" d="M503,673.19h0a11.08,11.08,0,0,1-11-12.29l4.35-39.6a1.62,1.62,0,0,1,1.61-1.44H508a1.61,1.61,0,0,1,1.6,1.44L514,660.9A11.08,11.08,0,0,1,503,673.19Z"/><rect class="cls-10" x="439.91" y="721.85" width="130.11" height="52.18" rx="14.27"/><rect class="cls-10" x="439.91" y="804.37" width="130.11" height="52.18" rx="14.27"/><rect class="cls-10" x="439.91" y="886.89" width="130.11" height="52.18" rx="14.27"/><path class="cls-11" d="M712.4,295.24V215.62A154.6,154.6,0,0,0,557.8,61H442a154.61,154.61,0,0,0-154.61,154.6v79.62a69.06,69.06,0,0,0-56.62,67.92V523.42a56.62,56.62,0,0,0,56.62,56.63h0A56.62,56.62,0,0,0,344,523.42V329.24a33.31,33.31,0,0,1,33.31-33.31H622.47a33.31,33.31,0,0,1,33.31,33.31V523.42a56.62,56.62,0,0,0,56.62,56.63h0A56.62,56.62,0,0,0,769,523.42V363.16A69.06,69.06,0,0,0,712.4,295.24Z"/><path class="cls-12" d="M556,61a154.59,154.59,0,0,0-154.61,154.6v79.61c-1.11.21-2.21.44-3.29.7H378.56a33.32,33.32,0,0,0-33.31,33.31V523.42c0,1.74-.07,3.47-.24,5.17a56.63,56.63,0,0,1-56.38,51.47h0A56.64,56.64,0,0,1,232,523.42V363.17a69.09,69.09,0,0,1,56.63-67.94V215.62A154.6,154.6,0,0,1,443.24,61Z"/><path class="cls-12" d="M345.25,355.11V523.42c0,1.74-.07,3.47-.24,5.17-.16-1.7-.23-3.43-.23-5.17V363.17A69,69,0,0,1,345.25,355.11Z"/><path class="cls-13" d="M381.83,151.85H608.41a63.65,63.65,0,0,1,63.65,63.65v69.84a10.59,10.59,0,0,1-10.59,10.59H328.77a10.59,10.59,0,0,1-10.59-10.59V215.5a63.65,63.65,0,0,1,63.65-63.65Z"/><path class="cls-14" d="M385.2,209.35a2,2,0,0,1-3.83.39c-.16-.35-.31-.7-.45-1.06A21.64,21.64,0,1,1,421.62,194c0,.07.05.14.07.21a2,2,0,0,1-3.12,2.2,21.65,21.65,0,0,0-33.37,12.94Z"/><path class="cls-14" d="M448.33,197.63a2,2,0,0,1-3.19-2.15c.1-.37.21-.73.34-1.1a21.63,21.63,0,1,1,40.66,14.75,1.8,1.8,0,0,1-.08.21,2,2,0,0,1-3.8-.31,21.65,21.65,0,0,0-33.93-11.4Z"/><path class="cls-14" d="M521.71,209.35a2,2,0,0,1-3.83.39c-.16-.35-.31-.7-.45-1.06A21.64,21.64,0,1,1,558.13,194a1.72,1.72,0,0,0,.07.21,2,2,0,0,1-3.12,2.2,21.64,21.64,0,0,0-33.37,12.94Z"/><path class="cls-14" d="M584.84,197.63a2,2,0,0,1-3.19-2.15c.1-.37.21-.73.33-1.1a21.64,21.64,0,1,1,40.67,14.75,1.8,1.8,0,0,1-.08.21,2,2,0,0,1-3.8-.31,21.66,21.66,0,0,0-33.93-11.4Z"/><path class="cls-14" d="M460.54,269.72a2,2,0,0,1,1.12,3.68c-.31.22-.63.44-1,.64a21.63,21.63,0,1,1-22.21-37.12l.19-.11a2,2,0,0,1,2.76,2.64,21.65,21.65,0,0,0,19.09,30.27Z"/><path class="cls-14" d="M377.74,266.06a2,2,0,0,1,1.11,3.69c-.31.22-.62.43-1,.63a21.63,21.63,0,1,1-22.21-37.12l.19-.11a2,2,0,0,1,2.76,2.64,21.65,21.65,0,0,0,19.1,30.27Z"/><path class="cls-14" d="M540,269.72a2,2,0,0,0-1.11,3.68c.31.22.62.44,1,.64a21.63,21.63,0,1,0,22.21-37.12l-.19-.11a2,2,0,0,0-2.76,2.64A21.65,21.65,0,0,1,540,269.72Z"/><path class="cls-14" d="M602.08,266.06a2,2,0,0,0-1.12,3.69c.31.22.63.43.95.63a21.63,21.63,0,1,0,22.21-37.12l-.19-.11a2,2,0,0,0-2.76,2.64,21.65,21.65,0,0,1-19.09,30.27Z"/><circle class="cls-2" cx="171.46" cy="262.57" r="28.46"/><circle class="cls-2" cx="769.03" cy="151.85" r="28.46"/><circle class="cls-2" cx="704.15" cy="443.55" r="28.46"/><circle class="cls-2" cx="881.17" cy="428.93" r="28.46"/><circle class="cls-2" cx="289.26" cy="518.5" r="28.46"/><circle class="cls-2" cx="504.97" cy="114.49" r="28.46"/><circle class="cls-2" cx="666.59" cy="768.83" r="28.46"/></svg>