<svg id="Layer_1" data-name="Layer 1" xmlns="http://www.w3.org/2000/svg" viewBox="0 0 1000 1000"><defs><style>.cls-1{fill:#8eb9dd;}.cls-17,.cls-2{fill:#fff;}.cls-3{fill:#341c18;}.cls-4{fill:#fdb2d0;}.cls-5{fill:#fe93bc;}.cls-6{fill:#d4f9dc;}.cls-7{fill:#95c6af;}.cls-8{fill:#003c79;}.cls-9{fill:#003865;}.cls-10{fill:#3a7053;}.cls-11{fill:#7eedb5;}.cls-12{fill:#b0d8ff;}.cls-13{fill:#ffa4a4;}.cls-14{fill:#ff7b7b;}.cls-15{fill:#a32c2c;}.cls-16{fill:none;}.cls-16,.cls-17{stroke:#fff;stroke-linecap:round;stroke-miterlimit:10;stroke-width:10px;}.cls-18{fill:#f75c5c;}.cls-19{fill:#452720;}</style></defs><circle class="cls-1" cx="500" cy="500" r="471.6"/><path class="cls-2" d="M434.86,199.36H406.63L299.47,120.65a24.78,24.78,0,0,0-14.66-4.8H270.13c-22.43,0-33.31,27.42-17,42.8l43.24,40.71H233.78l-26.16-38.68a14.67,14.67,0,0,0-12.14-6.45h0a14.67,14.67,0,0,0-14.67,14.66v68.2a44.29,44.29,0,0,0,44.29,44.29h46.82l-42.66,40.17c-16.32,15.38-5.44,42.8,17,42.8h14.68a24.78,24.78,0,0,0,14.66-4.8L382,281.38H491.16A12.86,12.86,0,0,0,504,268.52h0A69.15,69.15,0,0,0,434.86,199.36Z"/><path class="cls-2" d="M875.9,784.84A473.49,473.49,0,0,1,696,929q-14.79,6.78-30.1,12.53c-1.31.5-2.64,1-4,1.47q-12.91,4.73-26.14,8.7a470.77,470.77,0,0,1-133.36,19.84c-.81,0-1.64,0-2.45,0q-20.08,0-39.77-1.66-15.19-1.28-30.1-3.48Q414.92,964.2,400,961q-19-4.1-37.49-9.75c-3.37-1-6.75-2.08-10.1-3.18-.53-.19-1.07-.35-1.6-.54q-22.08-7.35-43.13-16.76l-1.19-.54a473.33,473.33,0,0,1-109.36-68.67,478.32,478.32,0,0,1-40.27-38,372.88,372.88,0,0,1,16.88-54.95c1.21-3.06,2.47-6.12,3.76-9.14,1.08-2.54,2.19-5.07,3.31-7.57.06-.11.11-.24.17-.35,1.14-2.52,2.3-5,3.5-7.5,0,0,0,0,0-.07q6.15-12.86,13.28-25.13c1.67-2.93,3.41-5.82,5.19-8.69a.54.54,0,0,1,.09-.15q8.63-14,18.46-27.25a377,377,0,0,1,52.71-57.33c3.09-2.72,6.21-5.39,9.39-8a374.54,374.54,0,0,1,40-28.88q7.47-4.68,15.16-9a371.8,371.8,0,0,1,153.22-46.59l2-.15q13.74-1,27.73-1t27.72,1A374.44,374.44,0,0,1,875.9,784.84Z"/><path class="cls-3" d="M579.64,173.84H512c-104.75,0-189.67,84.91-189.67,189.66V588.25a79.27,79.27,0,0,0,79.28,79.27H690a79.27,79.27,0,0,0,79.28-79.27V363.5C769.31,258.75,684.39,173.84,579.64,173.84Z"/><rect class="cls-4" x="494.54" y="596.16" width="106.02" height="143.76" rx="21.4"/><path class="cls-5" d="M566.09,739.53a38,38,0,0,1-5.68.4H533.23a39.42,39.42,0,0,1-39.43-39.42V635.58a39.42,39.42,0,0,1,39.43-39.42h27.18a38,38,0,0,1,5.68.4,39.43,39.43,0,0,0-33.71,39v64.93A39.43,39.43,0,0,0,566.09,739.53Z"/><path class="cls-6" d="M787.84,789.11v84.47A471.29,471.29,0,0,1,696,929q-14.79,6.78-30.1,12.53c-1.31.5-2.64,1-4,1.47q-12.91,4.73-26.14,8.7a470.77,470.77,0,0,1-133.36,19.84c-.81,0-1.64,0-2.45,0q-20.08,0-39.77-1.66-15.19-1.28-30.1-3.48Q414.92,964.2,400,961q-19-4.1-37.49-9.75c-3.37-1-6.75-2.08-10.1-3.18-.53-.19-1.07-.35-1.6-.54q-22.08-7.35-43.13-16.76l-1.19-.54V789.11a84,84,0,0,1,11.55-42.66A81.92,81.92,0,0,1,325.32,736a85.35,85.35,0,0,1,13.54-13.33,84.09,84.09,0,0,1,52.08-18H703.41a84.48,84.48,0,0,1,84.43,84.43Z"/><path class="cls-7" d="M447,704.68A84.22,84.22,0,0,0,431.88,706l-1.7.31a84.55,84.55,0,0,0-67.64,82.77V951.22c-3.37-1-6.75-2.08-10.1-3.18-.53-.19-1.07-.35-1.6-.54q-22.08-7.35-43.13-16.76V789.11a84.2,84.2,0,0,1,4.76-28A82.76,82.76,0,0,1,319.54,746a84.63,84.63,0,0,1,5.77-8.5,86.85,86.85,0,0,1,13.55-13.89,84.21,84.21,0,0,1,53.3-18.92Z"/><path class="cls-8" d="M460.23,707.78V969.94q-15.19-1.28-30.1-3.48Q414.92,964.2,400,961V707.8a20.34,20.34,0,0,1,20.41-20.41h19.38c.4,0,.79,0,1.19,0s.56,0,.83.08a16.39,16.39,0,0,1,3.08.53l.22.07A20.38,20.38,0,0,1,460,704.68,19.94,19.94,0,0,1,460.23,707.78Z"/><path class="cls-9" d="M445.14,688.1a20.43,20.43,0,0,0-14.77,16.58,15.92,15.92,0,0,0-.19,1.66c0,.48-.05,1-.05,1.46V966.46Q414.92,964.2,400,961V707.8a20.34,20.34,0,0,1,20.41-20.41h19.38c.4,0,.79,0,1.19,0s.56,0,.83.08a16.39,16.39,0,0,1,3.08.53l.26.06Z"/><rect class="cls-10" x="386.84" y="786.32" width="85.54" height="112.81" rx="10.48"/><rect class="cls-11" x="402" y="805.62" width="56.26" height="74.2" rx="6.89"/><path class="cls-8" d="M696,707.78V929q-14.79,6.78-30.1,12.53c-1.31.5-2.64,1-4,1.47q-12.91,4.73-26.14,8.7V707.8a20.34,20.34,0,0,1,20.41-20.41H675.6c.4,0,.79,0,1.19,0s.56,0,.83.08a16.39,16.39,0,0,1,3.08.53l.22.07a20.38,20.38,0,0,1,14.85,16.58A19.94,19.94,0,0,1,696,707.78Z"/><path class="cls-9" d="M680.92,688.1a20.43,20.43,0,0,0-14.77,16.58,19,19,0,0,0-.24,3.12V941.57c-1.31.5-2.64,1-4,1.47q-12.91,4.73-26.14,8.7V707.8a20.34,20.34,0,0,1,20.41-20.41H675.6c.4,0,.79,0,1.19,0s.56,0,.83.08a16.39,16.39,0,0,1,3.08.53l.26.06Z"/><rect class="cls-10" x="622.62" y="786.32" width="85.54" height="112.81" rx="10.48"/><rect class="cls-11" x="637.78" y="805.62" width="56.26" height="74.2" rx="6.89"/><path class="cls-4" d="M472.37,704.69H622.62a0,0,0,0,1,0,0V858.35a40.78,40.78,0,0,1-40.78,40.78H513.15a40.78,40.78,0,0,1-40.78-40.78V704.69A0,0,0,0,1,472.37,704.69Z"/><path class="cls-12" d="M934.71,545.13a26.38,26.38,0,0,0-33.54-25.43,36,36,0,0,0-69.07.2,26.42,26.42,0,1,0-7.87,51.65H914.7v-.82A26.39,26.39,0,0,0,934.71,545.13Z"/><path class="cls-2" d="M197.83,417a26.35,26.35,0,0,0-33.54-25.42,36,36,0,0,0-69.07.19,26.42,26.42,0,1,0-7.87,51.65h90.47v-.81A26.41,26.41,0,0,0,197.83,417Z"/><path class="cls-2" d="M730.91,128.18a26.35,26.35,0,0,0-33.54-25.42,36,36,0,0,0-69.07.19,26.42,26.42,0,1,0-7.87,51.65H710.9v-.81A26.41,26.41,0,0,0,730.91,128.18Z"/><path class="cls-4" d="M744.08,418.66h-4.43v-30a191.59,191.59,0,0,0-25.35-95.53c-1.18-2.06-2.41-4.1-3.67-6.12a52.13,52.13,0,0,1-6.72,8.2,26.14,26.14,0,0,1-40.86,29.54,27.32,27.32,0,0,1-43.48-6.4A40.23,40.23,0,0,1,549,308.25a27.29,27.29,0,0,1-40.84-2.3,40.22,40.22,0,0,1-63.33,20.71A27.3,27.3,0,0,1,431,332.57a192.37,192.37,0,0,0-8.33,56.09v87c0,94.53,68.15,173.14,158,189.36h.06c-.6.12-1.17.21-1.76.3s-1.05.18-1.58.26c-1.06.18-2.13.33-3.2.5l-.6.09c-1.44.2-2.9.39-4.38.55q-4.19.52-8.44.82h.77c2.86-.22,5.71-.49,8.53-.82,1.48-.16,2.94-.35,4.38-.55l.6-.09c1.07-.17,2.14-.32,3.2-.5.53-.08,1-.15,1.58-.26s1.15-.2,1.7-.31a192.51,192.51,0,0,0,156.92-167.7h5.65a26.59,26.59,0,0,0,26.58-26.61V445.24a26.62,26.62,0,0,0-26.58-26.58Z"/><path class="cls-5" d="M580.65,665c-89.88-16.22-158-94.83-158-189.36v-87A192.37,192.37,0,0,1,431,332.57a27.83,27.83,0,0,1-3.43.24c-12.19,0-22.62-9-26.14-20-2.45,1.2-4.42,2.56-6.81,3.86-1.81,1-4,2.28-5.84,2.31-5.74-.25-13.12-5.82-11.72-13.7a30.85,30.85,0,0,1,1-5.14c1.27-1.6.75-3.51,1.19-5.34-6.35,9.66-10.79,22.25-15.08,34.59a176.17,176.17,0,0,0-8.91,37,194.3,194.3,0,0,0-1.28,22.23v30h-3.64a26.58,26.58,0,0,0-26.58,26.58v25.44a26.6,26.6,0,0,0,26.58,26.61h4.85c0,.26.06.5.1.75.12,1.11.25,2.22.4,3.32.06.34.09.67.15,1,.16,1.31.37,2.6.57,3.89.24,1.48.48,3,.76,4.41s.55,2.94.86,4.39c.89,4.27,1.9,8.47,3.07,12.61.44,1.53.88,3.06,1.34,4.57s.89,2.8,1.35,4.19c.39,1.18.79,2.34,1.2,3.5.11.34.24.67.35,1q.47,1.3,1,2.58c.24.63.48,1.26.72,1.87.33.86.66,1.71,1,2.56.19.44.35.89.56,1.33.31.79.64,1.59,1,2.36s.7,1.66,1.09,2.47c.19.46.39.91.59,1.35.46,1,.94,2.07,1.44,3.08.15.33.31.65.46,1,.37.76.72,1.49,1.11,2.23.46.92.92,1.86,1.42,2.79l.07.14c.61,1.19,1.26,2.38,1.92,3.57.91,1.67,1.87,3.33,2.84,5,.5.88,1,1.77,1.57,2.63,1.53,2.51,3.12,5,4.76,7.4.85,1.29,1.74,2.55,2.64,3.8q4.23,6,8.95,11.63c.81,1,1.62,2,2.47,2.91s1.73,2,2.64,3,1.71,1.88,2.6,2.82c.5.54,1,1.09,1.53,1.63s1.22,1.27,1.84,1.88c.82.85,1.66,1.66,2.49,2.47s1.48,1.46,2.24,2.16c.92.87,1.84,1.73,2.78,2.58q6.7,6.09,14,11.57l.26.18c1.23.93,2.47,1.83,3.74,2.71s2.51,1.79,3.8,2.64,2.57,1.72,3.87,2.57,2.61,1.64,3.93,2.45,2.66,1.59,4,2.36,2.69,1.53,4.06,2.27,2.71,1.46,4.07,2.16l.08,0c1.36.7,2.75,1.38,4.15,2a176.94,176.94,0,0,0,17.25,7.31c1.47.54,3,1,4.44,1.57s3,1,4.51,1.46,3,.92,4.53,1.34,3.07.85,4.6,1.26l4.63,1.12c1.55.35,3.12.7,4.68,1s3.14.62,4.71.9,3.17.55,4.76.79,3.19.47,4.8.67,3.22.39,4.83.55,3.25.32,4.87.44l.39,0h28.82q4.26-.3,8.44-.82c1.48-.16,2.94-.35,4.38-.55l.6-.09c1.07-.17,2.14-.32,3.2-.5.53-.08,1-.15,1.58-.26s1.16-.18,1.76-.3Z"/><circle class="cls-2" cx="342.42" cy="496.1" r="13.71"/><circle class="cls-2" cx="744.17" cy="496.1" r="13.71"/><rect class="cls-13" x="122.04" y="457.25" width="154.36" height="303.86" rx="8.41" transform="translate(-187.46 98.03) rotate(-19)"/><rect class="cls-14" x="184.5" y="457.25" width="154.36" height="303.86" rx="8.41"/><path class="cls-15" d="M206.05,622.32H322.22a0,0,0,0,1,0,0V749.81a0,0,0,0,1,0,0H206.05a5.11,5.11,0,0,1-5.11-5.11V627.43A5.11,5.11,0,0,1,206.05,622.32Z" transform="translate(-424.49 947.65) rotate(-90)"/><path class="cls-2" d="M248.56,505.37V515l-26.91,36.65a8.45,8.45,0,0,0-1.65,5v5a8.47,8.47,0,0,0,14.64,5.81l13.92-14.79v21.41l-14.47,9.79a2.2,2.2,0,0,0-1,1.81v4.32a2.2,2.2,0,0,0,2.19,2.2h26.15a15.15,15.15,0,0,0,15.14-15.15v-16l13.74,14.59A8.47,8.47,0,0,0,305,569.88v-5a8.45,8.45,0,0,0-1.65-5l-26.73-36.4V486.12a4.4,4.4,0,0,0-4.4-4.4h0A23.65,23.65,0,0,0,248.56,505.37Z"/><line class="cls-16" x1="199.21" y1="625.43" x2="222.35" y2="625.43"/><line class="cls-16" x1="250.26" y1="625.43" x2="273.39" y2="625.43"/><line class="cls-16" x1="300.16" y1="625.43" x2="323.29" y2="625.43"/><line class="cls-17" x1="221.58" y1="721.37" x2="221.58" y2="656.9"/><line class="cls-17" x1="302.51" y1="721.37" x2="302.51" y2="656.9"/><line class="cls-17" x1="260.43" y1="709.4" x2="260.43" y2="668.87"/><path class="cls-18" d="M185.86,472.75V745.61c0,8.57,6.34,15.49,14.17,15.49H185.79c-7.84,0-14.17-6.92-14.17-15.49V472.75c0-8.57,6.33-15.5,14.17-15.5H200C192.2,457.25,185.86,464.18,185.86,472.75Z"/><path class="cls-4" d="M208.59,703.87h40.47a24,24,0,0,1,24,24V835.27a0,0,0,0,1,0,0H184.57a0,0,0,0,1,0,0V727.9A24,24,0,0,1,208.59,703.87Z" transform="translate(-134.31 53.52) rotate(-10.33)"/><path class="cls-5" d="M209.24,756.43,224,837.26l-26.75,4.88-15.62-85.71a44.25,44.25,0,0,1,35.61-51.49A44.17,44.17,0,0,1,239,706.43,44.26,44.26,0,0,0,209.24,756.43Z"/><path class="cls-6" d="M350.84,947.5q-22.08-7.35-43.13-16.76l-1.19-.54a473.33,473.33,0,0,1-109.36-68.67l-11.93-28.21a11,11,0,0,1,.14-9,15.74,15.74,0,0,1,.78-1.4,8.53,8.53,0,0,1,1-1.29c.19-.21.37-.39.58-.59a3.81,3.81,0,0,1,.59-.55,11,11,0,0,1,1.34-1,10.21,10.21,0,0,1,1.51-.77l1.55-.65.13-.07h0l25.64-10.85v0h0L270,785.3a11.16,11.16,0,0,1,14.63,5.93l2.67,6.34,19.18,45.26,1.19,2.82.92,2.17,1.18,2.8Z"/><path class="cls-7" d="M231.47,833.32l1,2.36v0L263,907.78a472.63,472.63,0,0,1-65.83-46.25l-11.93-28.21a11,11,0,0,1,.14-9,15.74,15.74,0,0,1,.78-1.4,8.53,8.53,0,0,1,1-1.29c.19-.21.37-.39.58-.59a3.81,3.81,0,0,1,.59-.55,11,11,0,0,1,1.34-1,10.21,10.21,0,0,1,1.51-.77l1.55-.65.13-.07h0l25.64-10.85v0h0L270,785.3a11.16,11.16,0,0,1,14.63,5.93l2.67,6.34-7.81,3.31L237.4,818.72A11.13,11.13,0,0,0,231.47,833.32Z"/><path class="cls-19" d="M623.24,185.82c17,8.41,40.89,25.26,54.54,56.94a8.24,8.24,0,0,1-11,10.76h0a5.3,5.3,0,0,0-7.09,6.93c2.89,6.56,6.36,14.89,9.35,23.3,3,8.57-8.06,15.05-14,8.15-15.8-18.42-39.24-40.12-63.77-43.12a3.76,3.76,0,0,1-2.77-5.73C592,237.39,599,228.92,609.93,226a19.35,19.35,0,0,0,14.12-22.43,31.62,31.62,0,0,0-5.49-12.08A3.77,3.77,0,0,1,623.24,185.82Z"/></svg>