<svg id="Layer_1" data-name="Layer 1" xmlns="http://www.w3.org/2000/svg" xmlns:xlink="http://www.w3.org/1999/xlink" viewBox="0 0 799 879"><defs><style>.cls-1{fill:none;}.cls-2{clip-path:url(#clip-path);}.cls-3{fill:#f5f7fc;}.cls-4{fill:#ebf0fc;}.cls-5{fill:#fda218;}.cls-6{fill:#fc8000;}.cls-7{fill:#e4d1d0;}.cls-8{fill:#9fc3fc;}.cls-9{fill:#4152f3;}.cls-10{fill:#fdb2d0;}.cls-11{fill:#fff;}.cls-12{fill:#322fe6;}.cls-13{fill:#86a8ff;}.cls-14{clip-path:url(#clip-path-2);}.cls-15{fill:#ffeb97;}.cls-16{fill:#eac011;}.cls-17{fill:#ffdf5a;}.cls-18{fill:#8eb9dd;}.cls-19{fill:#7497af;}.cls-20{fill:#c0d2ff;}.cls-21{fill:#ff7b7b;}.cls-22{fill:#ffa4a4;}.cls-23{fill:#d4f9dc;}.cls-24{fill:#e8505b;}.cls-25{fill:#64e551;}.cls-26{fill:#fccde0;}.cls-27{fill:#95c6af;}.cls-28{fill:#598470;}.cls-29{fill:#6aa089;}.cls-30{fill:#351201;}.cls-31{fill:#1e0c00;}.cls-32{fill:#b0d8ff;}.cls-33{fill:#fe93bc;}.cls-34{fill:#769bb5;}.cls-35{fill:#3f1b02;}.cls-36{fill:#5e2702;}.cls-37{fill:#7eedb5;}.cls-38{fill:#6acc99;}.cls-39{fill:#dddddc;}.cls-40{fill:#e9e9ea;}.cls-41{fill:#e2e2e1;}.cls-42{fill:#edeced;}</style><clipPath id="clip-path"><rect class="cls-1" x="1064.7" y="-615.28" width="728.76" height="779.28"/></clipPath><clipPath id="clip-path-2"><rect class="cls-1" x="0.38" y="25.43" width="798.23" height="853.57"/></clipPath></defs><g class="cls-2"><path class="cls-3" d="M2448.46-236.94C2440.19-119.53,2353.24-9,2181.76-12.21c-297.34-5.59-494.31-93.82-700.2-92.62S994.08-82.25,717.62,9.8C525.43,73.74,380.48-102,403.53-258.53c10.09-68.67,52.46-133.61,137.3-173.2,278.32-129.65,630.24-54.87,909.44-26.87,325,26.5,711.36-127.72,891.67-6C2418.3-413.16,2454.55-323.2,2448.46-236.94Z"/><path class="cls-4" d="M2448.46-236.94C2440.19-119.53,2353.24-9,2181.76-12.21c-297.34-5.59-507.94-175.1-713.83-173.92S994.08-82.21,717.58,9.8C525.43,73.74,380.48-102,403.53-258.53c181.15-43.4,292.85,103,459.76,42.83,171.5-61.8,716.61-113.2,798.45-36.23s460.86,43.74,499.17,18.76C2191.36-253,2374.44-242.27,2448.46-236.94Z"/><path class="cls-5" d="M830.34-35.85V-16.6a7.41,7.41,0,0,1-2.7,5.27A20.43,20.43,0,0,1,825.92-10a29.84,29.84,0,0,1-4.41,2.57c-.54.26-1.12.53-1.71.77a57.2,57.2,0,0,1-7,2.46l-1.7.51c-2.83.76-5.9,1.45-9.19,2l-1.71.31c-2.7.43-5.52.83-8.47,1.16l-1.7.16c-1.95.2-3.95.35-6,.49-.57,0-1.14.09-1.72.12-2.55.13-5.16.21-7.82.27h-2.93c-2.5,0-4.94,0-7.34-.14h-1.72c-2.47-.11-4.87-.28-7.22-.48L753.58.1c-1.64-.15-3.22-.34-4.77-.53L747.1-.66c-2-.27-3.92-.58-5.77-.9l-1.71-.33c-1.61-.29-3.16-.63-4.65-1l-1.71-.42c-1.86-.47-3.61-1-5.27-1.52l-1.72-.6a45.92,45.92,0,0,1-4.76-2c-.61-.28-1.17-.59-1.73-.89a22.5,22.5,0,0,1-3.65-2.47,13.62,13.62,0,0,1-1.73-1.75,6.51,6.51,0,0,1-1.59-4V-35.85Z"/><path class="cls-6" d="M755.3-14.26V.29L753.58.14v-14.4Z"/><path class="cls-6" d="M764.24-14.26V.84h-1.72v-15.1Z"/><path class="cls-6" d="M774.55-15.53V1h-1.72V-15.54Z"/><path class="cls-6" d="M784.06-17.43v18c-.57,0-1.13.1-1.71.12V-17.41Z"/><path class="cls-6" d="M791.77-17.43V-.09l-1.7.16V-17.47Z"/><path class="cls-7" d="M827.65-19.82a20.28,20.28,0,0,1-1.71,1.35,32,32,0,0,1-4.41,2.58l-1.72.76a57.2,57.2,0,0,1-7,2.46l-1.7.5q-4.25,1.14-9.19,2l-1.71.29c-2.7.45-5.52.85-8.46,1.17l-1.7.17c-2,.2-4,.35-6,.49-.57,0-1.13.08-1.71.12-2.55.13-5.17.21-7.83.27h-2.94c-2.5,0-4.94,0-7.34-.14l-1.72-.06c-2.47-.13-4.87-.29-7.22-.49l-1.72-.16c-1.64-.15-3.22-.33-4.77-.52-.58-.08-1.16-.14-1.71-.24-2-.25-3.92-.57-5.77-.9-.58-.1-1.14-.21-1.71-.33-1.6-.29-3.16-.63-4.65-1l-1.71-.41c-1.86-.48-3.61-1-5.27-1.54-.58-.18-1.15-.38-1.72-.58a46.06,46.06,0,0,1-4.76-2c-.61-.28-1.17-.58-1.73-.88a21.53,21.53,0,0,1-3.65-2.48,13.54,13.54,0,0,1-1.73-1.74,6.51,6.51,0,0,1-1.59-4.05v8.52a6.47,6.47,0,0,0,1.59,4,13.08,13.08,0,0,0,1.73,1.76,22.5,22.5,0,0,0,3.65,2.47c.56.3,1.12.61,1.73.89a45.92,45.92,0,0,0,4.76,2l1.72.6c1.66.55,3.41,1,5.27,1.52l1.71.42c1.5.38,3,.72,4.65,1l1.71.33c1.85.32,3.78.63,5.77.9l1.71.23c1.55.19,3.13.38,4.77.53L755.3.2c2.35.21,4.75.38,7.22.49h1.72c2.4.1,4.84.14,7.34.14h3c2.7,0,5.27-.14,7.82-.27a7.59,7.59,0,0,0,1.72-.13c2-.13,4-.28,6-.48l1.7-.16c3-.33,5.77-.73,8.47-1.16L802-1.68c3.29-.58,6.36-1.27,9.19-2l1.7-.51a57.2,57.2,0,0,0,7-2.46c.59-.24,1.17-.51,1.71-.77A30.47,30.47,0,0,0,826-10q.88-.63,1.71-1.35a7.41,7.41,0,0,0,2.7-5.27v-8.42A7.38,7.38,0,0,1,827.65-19.82Z"/><path class="cls-8" d="M407.55,26.41a.91.91,0,0,1-.4-.06,1.12,1.12,0,0,1-.63-1.44h0c5.72-14.4,2.37-36.91-1.19-60.73-2.31-15.56-4.71-31.64-4.54-45.88a1.11,1.11,0,0,1,1.11-1.1h0A1.11,1.11,0,0,1,403-81.69h0c-.17,14.08,2.22,30.07,4.52,45.55,3.59,24.13,7,46.93,1,61.88A1.09,1.09,0,0,1,407.55,26.41Z"/><path class="cls-9" d="M391.51,32.27h-.3a1.1,1.1,0,0,1-.76-1.35h0c1.78-6.41-2.83-57.07-14.07-85a1.11,1.11,0,0,1,.62-1.44,1.09,1.09,0,0,1,1.42.6v0c11.1,27.69,16.33,78.73,14.14,86.5A1.1,1.1,0,0,1,391.51,32.27Z"/><polygon class="cls-8" points="375.37 14.56 423.48 14.56 412.37 122.99 386.57 123.32 375.37 14.56"/><path class="cls-10" d="M506,26.12c-.23-10.8-.45-29.86-.45-29.86l24.71,2s-5.4,27.34-5.65,30A12,12,0,0,1,522,33.73Z"/><path class="cls-5" d="M560,56.47a1.71,1.71,0,0,1-.88.73,35.46,35.46,0,0,1-14.55,3.25c-2.7.11-5.39,0-8.09,0l-5.59-.24L527.78,60l-3.09-.16-19.31-1c-1.53-.08-3.28-.29-4.17-1.57a3.08,3.08,0,0,1-.41-.88h0a7.3,7.3,0,0,1-.25-1.61,47.67,47.67,0,0,1,2.58-19.24,71.47,71.47,0,0,0,2.43-7,15.1,15.1,0,0,0,.41-2.42h0c.17,0,4.19,1.08,8.41,1.83,3.81.67,7.77,1.09,9.31.33a.53.53,0,0,0,.15-.08c1.16-.7,1.35,1.91,1.8,4.4a3.85,3.85,0,0,0,.1.68c0,.21.15.81.25,1.16a3.68,3.68,0,0,0,.94,2,13.69,13.69,0,0,0,3,1.81l.85.39c.75.33,1.52.61,2.29.91l2.86,1.09.87.33,3.68,1.34.87.34,4.79,1.82a39.59,39.59,0,0,1,8.09,3.81c.42.28.84.59,1.25.9a14.23,14.23,0,0,1,3.6,4.2,10.3,10.3,0,0,1,.78,1.8A1.82,1.82,0,0,1,560,56.47Z"/><path class="cls-6" d="M525.54,33.47q-2.5,4.05-5.4,7.92c-.35.48.34,1.1.69.61,1.95-2.64,3.77-5.33,5.48-8.1.31-.51-.52-.91-.82-.42Z"/><path class="cls-6" d="M530.77,36.9A39,39,0,0,0,526,47.32c-.18.56.73.75.89.19a38.8,38.8,0,0,1,4.75-10.19c.32-.5-.5-.91-.82-.42Z"/><path class="cls-6" d="M536.45,39.44a30,30,0,0,0-2.37,8.19c-.08.58.81.78.9.19a29.22,29.22,0,0,1,2.29-8c.24-.53-.58-1-.82-.41Z"/><path class="cls-6" d="M540.77,41.53a22.42,22.42,0,0,0-1.26,7c0,.58.9.54.92,0a21.6,21.6,0,0,1,1.24-6.75c.19-.56-.72-.74-.9-.19Z"/><path class="cls-11" d="M559.35,55.1a1.9,1.9,0,0,1-.89.72A36.24,36.24,0,0,1,544,59.14c-2.7.13-5.4.11-8.1,0-2.18,0-4.37-.13-6.56-.22a17.74,17.74,0,0,1-2-.08l-3.07-.13L505,57.93c-1.52,0-3.26-.23-4.14-1.49v-.08h0a4.81,4.81,0,0,1-.58-2.35A46.19,46.19,0,0,1,503,35.12a68.49,68.49,0,0,0,2.5-6.95,2.86,2.86,0,0,1,.07.28,9,9,0,0,1-.19,4.77c-.54,1.88-1.42,3.63-2,5.47A19.58,19.58,0,0,0,503,49.34a7.11,7.11,0,0,0,1.66,3.39,7.66,7.66,0,0,0,5.14,1.69c4.69.27,9.45,0,14.08-.14a57.93,57.93,0,0,1,11.62.69c3.36.61,6.75,1.67,10.08,1.47a13.52,13.52,0,0,0,7.5-2.87,6.76,6.76,0,0,0,2.32-3,3.64,3.64,0,0,0,.14-1.43,14.11,14.11,0,0,1,3.6,4.2,2.32,2.32,0,0,1,.16.44A1.78,1.78,0,0,1,559.35,55.1Z"/><path class="cls-10" d="M598,21.07c-2.28-10.57-6.11-29.23-6.11-29.23l24.64-2.7s-.16,27.88.14,30.53a11.76,11.76,0,0,1-1.53,5.88Z"/><path class="cls-5" d="M656.73,40.61a1.67,1.67,0,0,1-.71.88,35.51,35.51,0,0,1-13.67,5.95c-2.62.62-5.28,1.08-8,1.48-1.84.29-3.69.57-5.52.83l-3,.43-3.07.43-19.15,2.7c-1.52.2-3.28.35-4.4-.76a2.72,2.72,0,0,1-.56-.78h0a7.67,7.67,0,0,1-.56-1.54A47.64,47.64,0,0,1,597,30.85c.37-2.43.93-4.87,1.06-7.34a16.56,16.56,0,0,0,0-2.44h0c.17,0,4.3.26,8.59.19,3.86,0,7.84-.41,9.21-1.45a.41.41,0,0,0,.13-.1c1-.92,1.73,1.6,2.59,4l.25.65c.14.37.29.75.45,1.09a3.81,3.81,0,0,0,1.35,1.74,14.75,14.75,0,0,0,3.27,1.2l.92.22c.79.17,1.62.32,2.43.46l3,.52.91.15,3.88.69.92.16,5,.88a39,39,0,0,1,8.71,2.2c.46.2.93.42,1.35.64a14.33,14.33,0,0,1,4.34,3.43,9.3,9.3,0,0,1,1.11,1.62A1.72,1.72,0,0,1,656.73,40.61Z"/><path class="cls-6" d="M618.57,24.58c-1.12,3-2.38,5.91-3.74,8.78-.26.54.54,1,.79.48,1.35-3,2.7-6,3.82-9,.22-.55-.67-.8-.87-.24Z"/><path class="cls-6" d="M624.36,26.94a39.06,39.06,0,0,0-2.77,11.15.46.46,0,0,0,.92,0,38.78,38.78,0,0,1,2.7-10.91c.23-.55-.66-.79-.88-.25Z"/><path class="cls-6" d="M630.42,28.36a29.18,29.18,0,0,0-.77,8.49c0,.59.94.6.91,0a29.34,29.34,0,0,1,.73-8.25c.14-.58-.74-.84-.87-.26Z"/><path class="cls-6" d="M635,29.58a22.73,22.73,0,0,0,.11,7.13c.1.58,1,.35.89-.23a21.69,21.69,0,0,1-.08-6.87c.08-.59-.83-.61-.92,0Z"/><path class="cls-11" d="M655.87,39.38a1.9,1.9,0,0,1-.74.87,36.26,36.26,0,0,1-13.61,6c-2.62.63-5.25,1.12-7.91,1.56-2.16.37-4.3.71-6.47,1l-2,.31-3,.46-19,2.89c-1.51.23-3.25.38-4.35-.68l-.06-.08h0a4.77,4.77,0,0,1-1-2.2,46.26,46.26,0,0,1-.88-19,66.34,66.34,0,0,0,1.13-7.28,2,2,0,0,1,.14.25,9.13,9.13,0,0,1,.71,4.73c-.17,1.94-.7,3.83-.94,5.76a19.48,19.48,0,0,0,1.66,10.51,7,7,0,0,0,2.28,3,7.67,7.67,0,0,0,5.4.68c4.62-.64,9.2-1.84,13.77-2.81a59.19,59.19,0,0,1,11.54-1.54c3.42,0,6.91.38,10.19-.47a13.41,13.41,0,0,0,6.75-4.25,6.52,6.52,0,0,0,1.71-3.41,3.69,3.69,0,0,0-.14-1.44,14.33,14.33,0,0,1,4.34,3.43,4.49,4.49,0,0,1,.24.42A1.73,1.73,0,0,1,655.87,39.38Z"/><path class="cls-9" d="M624.83,10.46h-45S569.07-180.76,560-172.93c-1.67,1.43-3.47,8.68-5.18,19.5-5.48,33.74-10.8,102.57-13.5,139.36h0c-1,14.84-1.67,24.49-1.67,24.49l-22.5-.08-22.62-.08S519.85-214,524.13-229c1.25-4.32,7.9-5.92,16.7-6,21.76-.2,56.79,8.91,56.79,8.91a50.7,50.7,0,0,1,2.07,5.64C613.1-177.33,618.76-25.67,624.83,10.46Z"/><path class="cls-12" d="M598.47-33.64c1,9.73,1.12,27.35,1,44.1H579.86S569.07-180.76,560-172.93c0,0,3.74-17.91,10.55-19S596.29-55.8,598.47-33.64Z"/><path class="cls-12" d="M599.67-220.43c-6.74,2.7-37.33,3-48.15,6.27S538.13-198.31,538-191.93,513.86,3.17,513.86,5.51a47.3,47.3,0,0,0,3.3,4.87l-22.62-.08S519.89-213.93,524.17-229c1.25-4.32,7.9-5.92,16.7-6C571.18-231.09,599.67-220.43,599.67-220.43Z"/><path class="cls-13" d="M624.83,10.46h-9.45c-3.55-6.27-3.51-17.72-2.81-27.64,1-14-2.6-84.67-6.74-108.38s-7.48-86.92-6.12-94.87C613.1-177.33,618.76-25.67,624.83,10.46Z"/><rect class="cls-12" x="490.48" y="3.77" width="53.48" height="7.56"/><rect class="cls-9" x="574.41" y="3.77" width="53.48" height="7.56"/><path class="cls-13" d="M627.89,3.77v7.61H617a58.22,58.22,0,0,1-3.86-7.54Z"/><path class="cls-12" d="M600.77,11.38H574.41V3.84h25.26A30.53,30.53,0,0,0,600.77,11.38Z"/><polygon class="cls-9" points="520.45 3.77 530.78 11.31 543.96 11.31 543.96 3.77 520.45 3.77"/><rect class="cls-1" x="327.24" y="-615.28" width="643.38" height="797.12"/></g><rect class="cls-11" x="0.38" width="798.23" height="879" rx="101.42"/><rect class="cls-11" x="0.38" width="798.23" height="879" rx="101.42"/><g class="cls-14"><path class="cls-3" d="M1516.06,439.84C1507,568.44,1411.76,689.51,1223.94,686,898.25,679.87,682.5,583.23,457,584.54S-77,609.27-379.78,710.1c-210.51,70-369.29-122.44-344-293.91,11.06-75.21,57.46-146.34,150.39-189.71,304.86-142,690.33-60.11,996.14-29.44,356,29,779.17-139.89,976.68-6.62C1483,246.82,1522.73,345.35,1516.06,439.84Z"/><path class="cls-4" d="M1516.06,439.84C1507,568.44,1411.76,689.51,1223.94,686c-325.69-6.12-556.37-191.8-781.88-190.5S-77,609.32-379.82,710.1c-210.47,70-369.25-122.44-344-293.91C-525.4,368.65-403,529-220.22,463.11c187.85-67.71,784.92-124,874.56-39.69S1159.13,471.33,1201.1,444C1234.45,422.19,1435,434,1516.06,439.84Z"/><path class="cls-11" d="M627.72,154V383.15a8.66,8.66,0,0,1-8.65,8.66H203.27a8.64,8.64,0,0,1-8.65-8.64V154Z"/><path class="cls-15" d="M346.06,189.86l34.42-12.36,34,12.2c4.36,2.05,8.18,3.28,8.18,7.39v20.18a76.12,76.12,0,0,1-11.24,40.14,69.75,69.75,0,0,1-31.33,27.69c-13.93-4.52-24.32-16.58-30.68-26.9a76.24,76.24,0,0,1-11.23-40.15v-18.2C338.23,194.07,341.29,191.25,346.06,189.86Z"/><path class="cls-16" d="M380.14,273.33a55.6,55.6,0,0,0,24.8-22.08,60.35,60.35,0,0,0,8.87-31.77V205.34c0-3.21-1.92-6.21-5.77-8L380.46,187v-9.52l34,12.19c3.58,1.56,8.17,3.29,8.17,7.39v20.18a76.24,76.24,0,0,1-11.23,40.15,69.78,69.78,0,0,1-31.34,27.69Z"/><path class="cls-17" d="M380.14,285a43.23,43.23,0,0,1-6.76-3,61.41,61.41,0,0,1-14.31-11.25,77.84,77.84,0,0,1-9.95-13.38,73.48,73.48,0,0,1-10.89-40.53V200.37c0-8.29,4.27-8.87,7.85-10.47l34.41-12.35v9.52L352.6,197.55c-3.85,1.79-5.78,4.79-5.78,8v14.05a60.34,60.34,0,0,0,8.87,31.76,54.3,54.3,0,0,0,24.46,21.93Z"/><path class="cls-3" d="M371.41,218.58v-2.73a8.94,8.94,0,0,1,17.88,0h0v2.78a5,5,0,0,1,4.25,4.93v16.07a5,5,0,0,1-5,5H371.87a5,5,0,0,1-5-5h0V223.55A5,5,0,0,1,371.41,218.58Zm6.52,17h4.44l-.68-3.15a2.66,2.66,0,1,0-3.68-.79,2.62,2.62,0,0,0,.8.79,32.33,32.33,0,0,0-.95,3.15Zm-4.59-17.06h14v-2.7a7,7,0,0,0-14,0Z"/><path class="cls-11" d="M408.24,218.38a11.14,11.14,0,0,0,.51-2.8,47.38,47.38,0,0,0,.28-6.84,35.76,35.76,0,0,0-.25-3.77,7.9,7.9,0,0,0-.77-3.05,3.44,3.44,0,0,0-1.47-1.48c-.46-.22-.76-.2-.76-.17a3.84,3.84,0,0,1,1.88,1.87,8.37,8.37,0,0,1,.61,3c.08,1.15.16,2.41.19,3.74.09,2.66,0,5.06-.11,6.8A16.71,16.71,0,0,0,408.24,218.38Z"/><path class="cls-11" d="M407.73,227.16c.17,0,.31-.82.34-1.85s-.1-1.86-.26-1.86-.33.82-.34,1.84S407.57,227.16,407.73,227.16Z"/><path class="cls-18" d="M566.37,180.5V282.74a5.91,5.91,0,0,1-5.91,5.91H458.24a5.92,5.92,0,0,1-5.91-5.91V180.5a5.92,5.92,0,0,1,5.91-5.91H560.46A5.91,5.91,0,0,1,566.37,180.5Z"/><circle class="cls-11" cx="509.39" cy="222.87" r="20.86"/><path class="cls-11" d="M546.73,281.08a39,39,0,0,1-.75,7.54H472.79a38.18,38.18,0,0,1-.75-7.54,37.35,37.35,0,1,1,74.69-1.48C546.74,280.09,546.74,280.59,546.73,281.08Z"/><rect class="cls-19" x="446.77" y="305.18" width="125.22" height="3.31" rx="0.89"/><rect class="cls-20" x="485.84" y="323.92" width="47.07" height="3.31" rx="0.89"/><circle class="cls-20" cx="478.89" cy="362.35" r="7.44"/><circle class="cls-20" cx="509.37" cy="362.35" r="7.44"/><circle class="cls-20" cx="539.87" cy="362.35" r="7.44"/><rect class="cls-20" x="332.49" y="371.5" width="202.45" height="73.87" rx="4.42"/><rect class="cls-11" x="408.04" y="386.7" width="102.07" height="3.27"/><rect class="cls-11" x="408.04" y="405.16" width="102.07" height="3.27"/><rect class="cls-11" x="408.04" y="423.62" width="102.07" height="3.27"/><path class="cls-21" d="M537.28,692.11c23.91-7,15.26-22.79,36.41-39.91s48.16-52,25.74-76.13-30.34-31.81-20.22-59.57-23.91-20-31.27-20.22-10.35-27-29.05-20.79-10.11,21.7-6.44,40.09-12.05,28.09-9.18,49.83,16.54,41.73,14,48.78-21.33,35.13-15.82,57.55S537.28,692.11,537.28,692.11Z"/><path class="cls-22" d="M481.94,636c-21.33-16.17-6.62-25.37-15.64-31s-54.78-48.17-25.37-60.48,11.22,6.8,36.41,5.91,18.2,27.39,21.69,34,31.26-3.12,29.43,24.64-14.9,52.58-14.9,52.58-17.74,13.11-22.17,3S481.94,636,481.94,636Z"/><path class="cls-23" d="M467.69,668.21c-17.1,1-39.72,21.65-14.21,29.65s72.54,1.92,78.35,1.92,14.78-14.88,3.44-19.44-15.58-1.47-15.58-1.47,15.45-5.65,9.92-12.69-17.37,0-17.37,0,10.35-9.24,3.58-13.3-17.09,4.43-17.09,4.43,12.82-25.92-8-29.56-31,11.31-31.85,22.48S467.69,668.21,467.69,668.21Z"/><path class="cls-11" d="M509.15,685.31a1.09,1.09,0,0,1-1.13-1,1.08,1.08,0,0,1,.63-1,93,93,0,0,0,36.28-38.44c11.82-23.75,7.89-39.6-4-86.6-1.48-6-3.16-12.55-4.92-19.65a1.11,1.11,0,1,1,2.09-.73,1.46,1.46,0,0,1,0,.2c1.75,7.09,3.4,13.61,4.91,19.63,12,47.61,16.07,63.65,3.83,88.14a95.3,95.3,0,0,1-37.27,39.47A1,1,0,0,1,509.15,685.31Z"/><path class="cls-11" d="M551.19,632.76a1,1,0,0,1-.47-.12,1.09,1.09,0,0,1-.53-1.45v0c10.2-21.06,30.65-32.77,30.85-32.87a1.08,1.08,0,0,1,1.48.4h0a1.09,1.09,0,0,1-.41,1.48c-.19.1-20,11.49-30,31.92A1.11,1.11,0,0,1,551.19,632.76Z"/><path class="cls-11" d="M548.61,585.83a1.15,1.15,0,0,1-.8-.34c-12.27-12.69-24.16-16.4-24.27-16.44a1.1,1.1,0,1,1,.63-2.1h0c.52.15,12.57,3.9,25.23,17a1.1,1.1,0,0,1-.79,1.88Z"/><path class="cls-11" d="M498.54,646h-.22a1.12,1.12,0,0,1-.86-1.31c4.27-20.7-6.5-35.85-19-53.32-3.29-4.59-6.67-9.33-9.91-14.36a1.11,1.11,0,0,1,.33-1.48,1.14,1.14,0,0,1,1.48.33c3.19,5,6.57,9.71,9.84,14.28C493,608,504,623.42,499.56,645.13A1.09,1.09,0,0,1,498.54,646Z"/><path class="cls-11" d="M497,622.07a1.09,1.09,0,0,1-1.06-.85c-.15-.65-3.67-16,3.55-28.76a1.09,1.09,0,0,1,1.47-.41,1.11,1.11,0,0,1,.42,1.48c-6.79,12-3.36,27-3.33,27.17a1.11,1.11,0,0,1-.81,1.33Z"/><path class="cls-11" d="M478,589.91a1.29,1.29,0,0,1-.46-.11c-.11,0-12.72-5.75-20.51-5.33a1.11,1.11,0,0,1-1.27-.93,1.1,1.1,0,0,1,.92-1.26.89.89,0,0,1,.23,0c8.29-.45,21,5.29,21.55,5.52a1.11,1.11,0,0,1,.54,1.48,1.14,1.14,0,0,1-1,.64Z"/><path class="cls-19" d="M627.72,124.69V154H320.25l18-38H619.12A8.66,8.66,0,0,1,627.72,124.69Z"/><path class="cls-3" d="M338.27,116.11l-18,38H194.62V124.69a8.65,8.65,0,0,1,8.65-8.65Z"/><circle class="cls-24" cx="231.87" cy="135.03" r="7.44"/><circle class="cls-25" cx="262.35" cy="135.03" r="7.44"/><circle class="cls-5" cx="292.85" cy="135.03" r="7.44"/><path class="cls-10" d="M231,753.41l-53-28.48a4.53,4.53,0,0,1-2.13-5.55,38.08,38.08,0,0,1,7.6-12.09c.62-1.48,3.44-8.59,7.76-19.22,8.45,6.23,16.91,12.58,25.64,18.42l-3.38,6.23-4.73,8.67A86,86,0,0,0,217.61,735c4.28,5.35,9.84,10.77,16.08,13.15a2.31,2.31,0,0,1,1.48,1.81,3.25,3.25,0,0,1-2.29,3.62A2.3,2.3,0,0,1,231,753.41Z"/><path class="cls-21" d="M224.67,753.49s-11.93-6.41-24.3-13.31c-13.21-7.39-26.93-15.48-27.15-17C172.76,720.2,181,710,181,710c4.26,7.52,10.73,12.43,17.62,17.14,4.33,3,8.87,5.92,13.05,9.26a10.91,10.91,0,0,0,11.08,1.48c3.62,3,6.66,6,10.34,8.86a9.86,9.86,0,0,1,2.06,2,3.33,3.33,0,0,1,.59,2.73,4,4,0,0,1-2.54,2.36A10.37,10.37,0,0,1,224.67,753.49Z"/><path class="cls-26" d="M217.68,735c-9.55-4.1-17.44-10.93-18.7-15.51-1.34-5,2.12-11.82,9.65-8.66,1.81.77,3.46,1.36,4.9,1.88l-4.73,8.67A86.76,86.76,0,0,0,217.68,735Z"/><path class="cls-22" d="M224.67,753.49s-11.93-6.41-24.3-13.31a74.43,74.43,0,0,0-1.73-13c4.33,3,8.87,5.92,13.05,9.26a10.91,10.91,0,0,0,11.08,1.48c3.62,3,6.66,6,10.34,8.87a9.58,9.58,0,0,1,2.06,2,3.33,3.33,0,0,1,.59,2.73,4.06,4.06,0,0,1-2.54,2.37A10.41,10.41,0,0,1,224.67,753.49Z"/><path class="cls-27" d="M297.67,561.39c-1.11,19.88-3.12,37.05-5.77,43.17-.26.63-.62,1.39-1.06,2.27h0c-1.66,3.45-4.33,8.59-7.78,14.78-18,32.32-54.82,93-54.82,93l-25.8-7-.93-.27-2-.58-12.88-3.49L172,699.41s64.44-94.82,68-112.87c2.32-11.83,4.44-35.26,5.18-62.09.41-14.2.45-29.35-.09-44.24,0,0,42.27-18.18,49.38-4.44C299,484.39,299.63,527.05,297.67,561.39Z"/><path class="cls-27" d="M290.84,606.88h0c-1.66,3.44-4.33,8.59-7.78,14.78-18,32.31-54.82,93-54.82,93l-25.8-7c19.72-20.55,76.47-81.3,87.36-112.34C289.8,595.26,290.39,599.83,290.84,606.88Z"/><path class="cls-28" d="M297.68,561.39c-1.15,19.91-3.15,37-5.75,43.18-1.39,3.24-4.58,9.31-8.87,17C280.9,604.75,280.05,574.86,297.68,561.39Z"/><path class="cls-28" d="M264.79,598c-7.58,13-49.4,85.39-63.28,109.39l-2-.57c13.59-23.53,55.94-96.76,63.57-109.89,6.13-10.57,4.3-35.64,2.15-64.65-1-13.31-2-27.17-2.3-40.77h2c.32,13.55,1.33,27.32,2.3,40.65C269.42,561.47,271.25,586.85,264.79,598Z"/><path class="cls-28" d="M256.29,590.26c-3.75,15.46-41,74.27-69.67,113.06L172,699.38s64.44-94.82,68-112.87c2.32-11.83,4.44-35.26,5.18-62.09C250.66,544.32,259.16,578.47,256.29,590.26Z"/><path class="cls-10" d="M377.52,749.72l-60.16,1.61a4.54,4.54,0,0,1-4.6-3.76,37.82,37.82,0,0,1,.59-14.26c-.24-1.67-1.27-18.48-2.84-29.89,10.35,1.2,21.41,3,31.9,3.72l-.34,15.91.21,9.87a86.49,86.49,0,0,0,14.47,7.39c6.37,2.52,13.9,4.44,20.49,3.43a2.34,2.34,0,0,1,2.23.8,3.23,3.23,0,0,1-.19,4.27A2.19,2.19,0,0,1,377.52,749.72Z"/><path class="cls-21" d="M372.08,752.91s-13.54.37-27.73.49c-15.15.11-31,0-32-1.3-1.9-2.38.25-15.29.25-15.29,7.39,4.44,15.47,5.46,23.8,6.12,5.23.42,10.56.68,15.93,1.48a10.87,10.87,0,0,0,10.35-4.27c4.58.71,8.78,1.93,13.3,2.64a9.72,9.72,0,0,1,2.8.73,3.35,3.35,0,0,1,1.86,2.07,4,4,0,0,1-1,3.31A10.35,10.35,0,0,1,372.08,752.91Z"/><path class="cls-26" d="M356.75,740.33c-10.35,1.2-20.56-.81-23.93-4.17-3.64-3.62-4.07-11.37,4.08-12.31,2-.22,3.66-.53,5.17-.8l.21,9.87A86.59,86.59,0,0,0,356.75,740.33Z"/><path class="cls-22" d="M372.08,752.91s-13.54.37-27.73.49a73.08,73.08,0,0,0-8-10.47c5.23.42,10.56.68,15.93,1.48a10.87,10.87,0,0,0,10.35-4.27c4.58.71,8.78,1.93,13.3,2.64a9.72,9.72,0,0,1,2.8.73,3.35,3.35,0,0,1,1.86,2.07,4,4,0,0,1-1,3.31A10.35,10.35,0,0,1,372.08,752.91Z"/><path class="cls-27" d="M358.32,595.26c-2.78,48-11.27,122.69-11.27,122.69h-45.5s4.75-115.83-3.38-151.81-61.8-41.39-62.84-91c0,0,19.57-4.65,40-8.32.67-.13,1.35-.22,2.06-.35,4.92-.84,9.87-1.66,14.57-2.28,16-2.28,29-2.82,28.59,1.48-.67,7.39,16.67,35.7,28.34,63,5.32,12.48,9.43,24.76,10.05,34.77A310.3,310.3,0,0,1,358.32,595.26Z"/><path class="cls-29" d="M332.74,667c0,17.73,3.27,38.52,4,51H301.55s.28-6,.55-15.72h0c.93-32.94,2.32-108.28-3.93-136-8.19-36-61.81-41.39-62.84-91,0,0,9.39-2.25,21.95-4.79,5.59-1.17,11.83-2.41,18.05-3.54.67-.13,1.35-.22,2.06-.35,4.92-.84,9.87-1.66,14.57-2.28l1.48.85c-4.44,27.39,4.43,43.31,22.62,62.29s26.22,48.35,25.69,62.88S332.74,643.3,332.74,667Z"/><path class="cls-28" d="M310.28,646.57c-1.57,13.4-5.15,36.73-8.18,55.68.93-32.93,2.32-108.28-3.93-136-8.19-36-61.8-41.39-62.84-91,0,0,9.39-2.24,21.95-4.79,18.32,54,52.29,55.2,53,80.8C311,578,313.22,621.23,310.28,646.57Z"/><path class="cls-28" d="M322.44,509.32a1,1,0,0,1-.84-.45c-.1-.16-10.35-15.46-16.59-20.13a1,1,0,0,1-.21-1.45l0,0a1,1,0,0,1,1.42-.23l.06,0c6.43,4.89,16.61,20,17,20.69a1,1,0,0,1-.2,1.43l-.08.05A1,1,0,0,1,322.44,509.32Z"/><path class="cls-28" d="M358.3,595.27c-11.35-15.28-16.8-42.5-9.43-66.6,5.32,12.49,9.43,24.77,10.08,34.79A298.73,298.73,0,0,1,358.3,595.27Z"/><path class="cls-28" d="M325.9,718h-2c2.19-28.43,9.73-134.18,2.2-155.7-3.4-9.7-10.45-20.13-18.62-32.23-12.24-18.09-26-38.43-32.09-63.2l2-.37c5.91,24.33,19.62,44.54,31.77,62.44,8.25,12.21,15.37,22.75,18.84,32.68C335.73,583.79,328.16,689.05,325.9,718Z"/><path class="cls-30" d="M337,358.42s-37,30.44-64.45,47.6c-10.63,6.61-19.84,11.26-24.88,11.35a34.16,34.16,0,0,1-8.19-.77,33.27,33.27,0,0,1-8.22-3.43,16.8,16.8,0,0,0-1.65-.81c-2.77-1.11-5.92-1.3-12,1.48-14.93,6.61-22.07-9.17-16.26-26.82s16.48-30.57,13.58-48.08a59.14,59.14,0,0,1,7.14-40.4c5.59-9.88-1.68-18,3.22-26.31s.67-10.35,21.41-37.9c5.5-7.23,10.46-11.83,14.93-14.61,12.46-7.82,21-1.48,25.47.36,18-4.44,33.11,7.64,30.57,25.95a39.72,39.72,0,0,0,.13,12.12c1.92,12.11,8.31,21.54,8.22,31.24-.18,12.73,5.76,26.61,9.47,33.11,3.36,5.72.36,8.75,1.11,14.47a11.35,11.35,0,0,0,.46,2.32C339,346.54,337,358.42,337,358.42Z"/><path class="cls-31" d="M328.55,354.31v-1.2c.16-19.21-15.26-36.64-20.08-50.83-4.92-14.49,8.87-49.43,3.86-60s-32.68,6.14-36.87,26.82,3.34,55.3,13.68,69.47S328.55,354.31,328.55,354.31Z"/><path class="cls-32" d="M310.28,471.93a13.6,13.6,0,0,0-3.58,1.2c-8.35,4.3-12.64-.44-20.28-2.28h0a27.85,27.85,0,0,0-15.83,1.21c-20.15,6.83-40.52,16.49-43.83,6.52s10.45-31.5,8.39-44a402.14,402.14,0,0,1-2.81-41c-.68-26,.71-55.45,8.67-63.18,13.76-13.3,43.22-14.66,52.5-11.61,31.46,10.34,34.9,33.73,36.69,53.93.36,4,.58,9.7.81,16.27.14,5.63.27,12,.4,18.59v.8c.45,24,.8,51,2.59,60.61C336.5,482.83,322.43,469.57,310.28,471.93Z"/><path class="cls-10" d="M294,328.53c-1.48,7.39-5.05,8.35-17.38,4.86a.39.39,0,0,1-.28-.08c-10.94-3.12-6.66-32.21-5.4-39.59.18-1.08.31-1.7.31-1.7l4.44,1.26h0l14.26,3.88,2.41.67a8.7,8.7,0,0,1-.18,1.12c-.22,1.79-.31,3.49-.37,5.13C291.72,314.64,295.26,322.23,294,328.53Z"/><path class="cls-33" d="M292.27,299c-.22,1.79-.31,3.49-.37,5.13-6.87,8.68-14,16.26-14.78,22.35-.31,2.63-.49,5-.58,7a.4.4,0,0,1-.28-.08c-10.94-3.12-6.65-32.21-5.39-39.59a21.05,21.05,0,0,1,4.82-.44h0A24.46,24.46,0,0,1,290,297.16,14.94,14.94,0,0,1,292.27,299Z"/><path class="cls-10" d="M308.49,256.37c-.27,14.78-3.45,50.25-24.72,46.87a20,20,0,0,1-8.71-3.53c-13.18-9.3-14.78-33.6-15.72-46.92A282.33,282.33,0,0,1,279,229.14c8-8.41,20.7.4,25.25,4.11l1.74,1.47s2.37,5.77,2.5,18.1A30,30,0,0,1,308.49,256.37Z"/><path class="cls-34" d="M331.37,407.54a26.72,26.72,0,0,1-10.64,2.28c-18.72.26-52.51-18.47-54.7-35.17l65,14.3C331.1,394.58,331.24,400.92,331.37,407.54Z"/><path class="cls-18" d="M286.37,470.88a27.87,27.87,0,0,0-15.83,1.21c-20.15,6.83-40.52,16.49-43.83,6.52s10.45-31.5,8.4-44a399.31,399.31,0,0,1-2.81-41c4.43-2.95,7.73-5,8.75-5.91,4.07-3.52,29.82-1.88,29.82-1.88-.42,18.82,11.82,35.58,2.95,45.9s-19.21,20.47-19,30.88,16.5,3.75,26.81,5.91A9.36,9.36,0,0,1,286.37,470.88Z"/><path class="cls-32" d="M328.55,398.69c-19,5.81-39.37,1.65-52.14-7.82a27.52,27.52,0,0,1-8.72-10.05c-5.46-11.71,2.36-24.14,12.06-30.8a27.24,27.24,0,0,1,10.35-4.43,27.86,27.86,0,0,1,9,.13h0c8,1.16,17.16,4.44,25.24,5l1.08,12.3,2.5,29.36Z"/><path class="cls-10" d="M399.74,260.43a120.56,120.56,0,0,0-12.64,10.35,36.44,36.44,0,0,0-4.7,5.81c-1.07,1.74-1.39,4.74-1.48,8.87-.09,13,1.88,37.57-12.33,73.91a.14.14,0,0,0,0,.09,75,75,0,0,1-9.16,16.94,58.88,58.88,0,0,1-30.88,22.17l-1.25-14.65L325.59,363l-1.08-12.3c7.39.6,14-1,18.2-8.21,6.74-11.83,13.8-38.93,24.65-62,4.44-9.56,9.61-18.4,15.64-25.2a50.42,50.42,0,0,1,6.14-5.91c24.79-19.84,5.44,1,5.08,1.88h0c0,.13.22.31.54.53,0,0,0,.09.08.09C397,253.41,404.33,256.9,399.74,260.43Z"/><path class="cls-26" d="M399.74,260.43a120.56,120.56,0,0,0-12.64,10.35,30.11,30.11,0,0,1,6-8.22c4.56-4.55,3-8.87,1.69-10.69C397,253.41,404.33,256.9,399.74,260.43Z"/><path class="cls-26" d="M382.93,255.29a49.7,49.7,0,0,1,6.13-5.92c24.79-19.83,5.44,1,5.09,1.88-1.2-1,4.06-6.39,1.57-5.68C393.59,246.2,388.56,255.06,382.93,255.29Z"/><path class="cls-26" d="M368.64,359.46c2.76-9.92,5.54-20.7,6.84-28.09,2.72-15.55,1.73-29.89,5.48-45.83C380.87,298.49,382.84,323.06,368.64,359.46Z"/><path class="cls-33" d="M367.29,280.49c-5.22,19.7-9.19,43-15,59.48-6.27,17.87-22.49,22.18-26.77,23l-1.08-12.3c7.39.59,14-1,18.19-8.22C349.37,330.63,356.44,303.55,367.29,280.49Z"/><path class="cls-33" d="M359.43,376.48a58.9,58.9,0,0,1-30.88,22.18l-.54-6.34C341,390.29,344.33,389.42,359.43,376.48Z"/><path class="cls-18" d="M328.55,398.69c-19,5.81-39.37,1.65-52.14-7.82a27.52,27.52,0,0,1-8.72-10.05c23.72,9.25,31.63,11.17,60.32,11.53Z"/><path class="cls-18" d="M325.59,363c-13.1-.4-17.16-11.66-26.33-17.34,8,1.16,17.16,4.44,25.25,5Z"/><path class="cls-35" d="M280.24,308.87c-2.23,12.86-14.61,20.46-12.55,49,.93,12.92,3.66,28.43,4.51,41.39.17,2.38.26,4.7.31,6.85.1,12.15-2.46,20.5-11.56,19.44-9.34-1.13-15.61-5.46-21.51-8.87a35.23,35.23,0,0,0-8.4-3.89c-.48-.13-1-.27-1.47-.36a20.5,20.5,0,0,0-12,1.48c-17.83,7.16,6.12-53.49,6.12-53.49l22.1-58.67,3.47-5.41,13.05-20.15C263.09,290.87,282.44,296,280.24,308.87Z"/><path class="cls-18" d="M310.28,471.93a5.78,5.78,0,0,1,2.05-1.39c10.35-4.2,7.55-2.1,10.1-20,2.45-17.51,8.94-28.87,8.94-42.23.44,24,.8,51,2.59,60.61C336.5,482.83,322.43,469.57,310.28,471.93Z"/><path class="cls-26" d="M308.49,256.37c-.27,14.78-3.45,50.25-24.72,46.87a20,20,0,0,1-8.71-3.53c5.81,1,16.13,1.65,22.52-4.87,9.25-9.52,10.64-32.22,10.86-42A32.17,32.17,0,0,1,308.49,256.37Z"/><path class="cls-35" d="M336.5,336.93a14.3,14.3,0,0,1-2.23-8.22c.31-7.64-13.17-21.41-11.31-33.87,1.79-12.07-5.09-19.39-5.26-35.27v-1.48c1.92,12.11,8.3,21.54,8.21,31.24-.17,12.73,5.77,26.61,9.48,33.11C338.75,328.18,335.75,331.21,336.5,336.93Z"/><path class="cls-36" d="M280.24,308.87c-2.23,12.86-14.61,20.46-12.55,49,.93,12.92,3.66,28.43,4.51,41.39-4.91-6.47-10.05-14.07-10.9-27.34a94.3,94.3,0,0,1,13-55.23c6.93-11.62-18.1-19.08-12.07-40.44C263.09,290.87,282.44,296,280.24,308.87Z"/><path class="cls-31" d="M257.77,271.56c-3.8,3.3-6.58,13.08-8.59,24.75a380.1,380.1,0,0,0-4.2,43.4c-.93,20.85-14.38,18.22-15.86,47.85-.57,11.61-.35,19.43,1.92,25.13a1.77,1.77,0,0,0,.18.45,16.8,16.8,0,0,0-1.65-.81,20.42,20.42,0,0,0-12,1.48c-14.93,6.61-22.07-9.17-16.26-26.82s16.48-30.57,13.58-48.08a59.14,59.14,0,0,1,7.14-40.4c5.59-9.88-1.68-18,3.22-26.31s.67-10.35,21.41-37.9c5.5-7.23,10.46-11.83,14.93-14.61-.53,3.31,5.91,8.13-3.09,20.87C245.77,258.51,266.25,264.14,257.77,271.56Z"/><path class="cls-10" d="M267.33,276.82a32.08,32.08,0,0,1-4-.44c-4.56-.8-11.66-3-14.17-8.53-2-4.43-.62-8.09,2.64-10.11l.09-.09a15.46,15.46,0,0,1,11.83-1Z"/><path class="cls-33" d="M308.44,252.83a24.86,24.86,0,0,1-21.71-20.91,159.66,159.66,0,0,1,17.47,1.3l1.74,1.47S308.31,240.5,308.44,252.83Z"/><path class="cls-31" d="M313.59,248.5a25,25,0,0,1-3.14-.27c-6.47-.76-21.09-3.93-23.65-16.26-.77,15.91-15.06,26.61-30.08,27.66a44.44,44.44,0,0,1,13-30.33c11.13-10.91,28.51-9.25,37.09-1.7a15.1,15.1,0,0,1,4.15,5.54C315.86,244.92,313.59,248.5,313.59,248.5Z"/><path class="cls-35" d="M286.73,231.92c-.77,15.9-15.07,26.6-30.08,27.65C268.53,256,286.28,235.58,286.73,231.92Z"/><path class="cls-35" d="M313.59,248.5a25,25,0,0,1-3.14-.27c0-6-.53-14.66-3.71-20.69a15.13,15.13,0,0,1,4.16,5.54C315.86,244.92,313.59,248.5,313.59,248.5Z"/><path class="cls-26" d="M263.31,276.38c-4.56-.8-11.66-3-14.17-8.53-2-4.43-.62-8.09,2.64-10.11-4.7,7.29-.31,12.43,6.65,14.93C261.44,273.75,263,275.08,263.31,276.38Z"/></g><circle class="cls-37" cx="372.91" cy="409.9" r="21.66"/><path class="cls-38" d="M394.57,409.9c0-.33,0-.65,0-1l-10.3-10.3-22.62,22.62,10.29,10.28q.49,0,1,0A21.66,21.66,0,0,0,394.57,409.9Z"/><path class="cls-39" d="M380.9,412.8l1.5,1.5-2,2-1.5-1.5Zm-14.39-10.34L368,404l2-2-1.5-1.5Zm-4.27-1.94,1.5,1.5,2-2-1.5-1.5ZM381,418.94l1.51,1.5,2-2-1.5-1.5Z"/><path class="cls-40" d="M364.77,418s-3.06-1.81-4.63-2c-1.33-.13-1.08,1.07-1.08,1.07l6.68,6.66s1.2.26,1.08-1.07C366.67,421.1,364.77,418,364.77,418Z"/><path class="cls-40" d="M383.23,420.22a151.26,151.26,0,0,0-7.07-13.54s-8.19-4.81-13.54-7.08c-1.81-.76-2.44-.56-2.94-.07a1.46,1.46,0,0,0-.4,1.14l22.89,22.88a1.4,1.4,0,0,0,1.13-.4C383.8,422.65,384,422,383.23,420.22Z"/><path class="cls-41" d="M383.36,403.37c-4,4-12.69,13.23-17.41,16.87a2.63,2.63,0,1,1-3.36-3.36c3.64-4.71,12.86-13.39,16.87-17.41a2.93,2.93,0,1,1,3.9,3.9Z"/><path class="cls-41" d="M374.64,416l-3.91-3.91,5.43-5.43s1.4,2.39,3,5.43A57,57,0,0,1,374.64,416Zm-12.28,4.36,2.17,2.18s1-.37,2.07-.88a19,19,0,0,0-1.83-3.7Z"/><path class="cls-40" d="M365.62,419.73c4.72-3.64,13.39-12.85,17.41-16.87a4.07,4.07,0,0,0,1.06-4.28l-.17-.09a4,4,0,0,0-4.46,1c-4,4-13.23,12.7-16.87,17.41a4.77,4.77,0,0,0-1.09,3.78.19.19,0,0,1,0,.08A4.53,4.53,0,0,0,365.62,419.73Z"/><path class="cls-42" d="M377.93,406.28c-3.74,3.78-5.71,5.61-9.83,9.31-2.05,1.85-4.17,3.4-4.47,3.1s1.22-2.44,3.05-4.51c3.66-4.15,5.46-6.15,9.2-9.93,1.86-1.87,5.07-4.58,5.82-3.83S379.79,404.4,377.93,406.28Z"/></svg>